<svg xmlns="http://www.w3.org/2000/svg" viewBox="0 0 36 36"><defs><style>.cls-1{fill:#b5121b;}.cls-2{fill:none;}</style></defs><title>icon 01</title><g id="Layer_2" data-name="Layer 2"><g id="Hollys_mall" data-name="Hollys mall"><path class="cls-1" d="M6.2,33.3,7.6,10.7h4.8V9.8a5.63,5.63,0,0,1,5.7-5.7,5.7,5.7,0,0,1,5.7,5.7v1h4l1.9,22.6H6.2ZM23,11.9a2,2,0,1,0,2,2A2,2,0,0,0,23,11.9Zm-10.1,0a2,2,0,1,0,2,2A2.07,2.07,0,0,0,12.9,11.9ZM18,4.1a5.59,5.59,0,0,0-5.6,5.6v.2l.1.6.7.1H23.5v-1A5.42,5.42,0,0,0,18,4.1Z"/><path class="cls-1" d="M27,11.4l1.8,21.1H7L8.3,11.4h3.3a2.73,2.73,0,1,0,3.9,2.5A2.82,2.82,0,0,0,14,11.4h7.7a2.73,2.73,0,1,0,3.9,2.5,2.82,2.82,0,0,0-1.5-2.5H27M18,3.2a6.38,6.38,0,0,0-6.4,6.4v.2H6.9L5.4,34h25l-2-24.1H24.5V9.7A6.49,6.49,0,0,0,18,3.2ZM13.2,9.9V9.7A4.8,4.8,0,0,1,18,4.9a4.87,4.87,0,0,1,4.8,4.8v.2ZM23,15.1a1.2,1.2,0,1,1,1.2-1.2A1.16,1.16,0,0,1,23,15.1Zm-10.1,0a1.2,1.2,0,0,1,0-2.4,1.29,1.29,0,0,1,1.2,1.2,1.22,1.22,0,0,1-1.2,1.2Z"/><rect class="cls-2" width="36" height="36"/></g></g></svg>