<svg xmlns="http://www.w3.org/2000/svg" viewBox="0 0 79.9 18"><defs><style>.cls-1{fill:#fff;}</style></defs><title>main_logo</title><g id="Layer_2" data-name="Layer 2"><g id="Layer_1-2" data-name="Layer 1"><path class="cls-1" d="M12.59,17.76H8.39V10.44H4.22v7.32H0V.24H4.22v7H8.39v-7h4.2Z"/><path class="cls-1" d="M30.81,9.36a10.27,10.27,0,0,1-.95,4.54,7,7,0,0,1-2.7,3A10.12,10.12,0,0,1,22.49,18a10.32,10.32,0,0,1-4.66-1A7.06,7.06,0,0,1,15.13,14a10.1,10.1,0,0,1-1-4.39v-1a10.35,10.35,0,0,1,.94-4.54,7,7,0,0,1,2.71-3A10.25,10.25,0,0,1,22.47,0a10.07,10.07,0,0,1,4.65,1.06,7.09,7.09,0,0,1,2.71,3,9.94,9.94,0,0,1,1,4.48Zm-4.29-.73a7.4,7.4,0,0,0-.87-4,4.09,4.09,0,0,0-3.18-1.35c-2.12,0-3.93,1.59-4,4.76V9.36a7.56,7.56,0,0,0,.86,4,4,4,0,0,0,3.22,1.38,4,4,0,0,0,3.15-1.36,7.35,7.35,0,0,0,.88-3.91Z"/><path class="cls-1" d="M36.12,14.51H42.7l-1.43,3.4-8.93-.15V.24h3.78Z"/><path class="cls-1" d="M48,14.51h6.58l-1.13,3.4-9.23-.15V.24H48Z"/><path class="cls-1" d="M60,7.84,63.21.24h4.56L62.13,11.47v6.29H57.85V11.47L52.22.24h4.53Z"/><path class="cls-1" d="M76.15,13.1a1.83,1.83,0,0,0-.59-1.44,6.83,6.83,0,0,0-2-1.07,19.61,19.61,0,0,1-2.39-1.07,5.11,5.11,0,0,1-3-4.6,4.49,4.49,0,0,1,.75-2.57A5,5,0,0,1,71,.62,7.53,7.53,0,0,1,74.08,0a6.54,6.54,0,0,1,3,.67,4.93,4.93,0,0,1,2.07,1.92,5.41,5.41,0,0,1,.74,2.85H76.16a2.24,2.24,0,0,0-.59-1.66A2.1,2.1,0,0,0,74,3.19a2.33,2.33,0,0,0-1.59.5,1.56,1.56,0,0,0,.06,2.49,7.78,7.78,0,0,0,2.25,1.13,13,13,0,0,1,2.66,1.26,5.1,5.1,0,0,1,2.52,4.51,4.49,4.49,0,0,1-1.54,3.61A6.33,6.33,0,0,1,74.13,18a7.61,7.61,0,0,1-3.43-.76,5.37,5.37,0,0,1-2.31-2.1,6,6,0,0,1-.77-3.06h3.76A2.91,2.91,0,0,0,72,14.16a2.84,2.84,0,0,0,2.1.66,2.24,2.24,0,0,0,1.48-.45A1.56,1.56,0,0,0,76.15,13.1Z"/></g></g></svg>