<svg xmlns="http://www.w3.org/2000/svg" viewBox="0 0 79.9 17.9"><defs><style>.cls-1{fill:#fff;}</style></defs><title>main_tit</title><g id="Layer_2" data-name="Layer 2"><g id="Layer_1-2" data-name="Layer 1"><path class="cls-1" d="M12.6,17.7H8.4V10.4H4.2v7.3H0V.2H4.2v7H8.4V.2h4.2Z"/><path class="cls-1" d="M30.8,9.3a9.33,9.33,0,0,1-1,4.5,6.57,6.57,0,0,1-2.7,3,10.49,10.49,0,0,1-4.7,1.1,10.44,10.44,0,0,1-4.7-1A6.86,6.86,0,0,1,15,14a10.18,10.18,0,0,1-1-4.4v-1a10.63,10.63,0,0,1,.9-4.5,6.57,6.57,0,0,1,2.7-3,10.59,10.59,0,0,1,9.4,0,6.57,6.57,0,0,1,2.7,3,10.64,10.64,0,0,1,1,4.5v.7Zm-4.3-.7a7.41,7.41,0,0,0-.9-4,4.16,4.16,0,0,0-3.2-1.4c-2.1,0-3.9,1.6-4,4.8V9.3a7.65,7.65,0,0,0,.9,4,4.36,4.36,0,0,0,6.4,0,7,7,0,0,0,.9-3.9V8.6Z"/><path class="cls-1" d="M36.1,14.5h6.6l-1.4,3.4-8.9-.2V.2h3.8V14.5Z"/><path class="cls-1" d="M48,14.5h6.6l-1.1,3.4-9.2-.2V.2h3.8V14.5Z"/><path class="cls-1" d="M60,7.8,63.2.2h4.6L62.2,11.4v6.3H57.9V11.4L52.3.2h4.5Z"/><path class="cls-1" d="M76.1,13.1a1.68,1.68,0,0,0-.6-1.4,11.07,11.07,0,0,0-2-1.1,13.82,13.82,0,0,1-2.4-1.1,5,5,0,0,1-3-4.6,4.7,4.7,0,0,1,.8-2.6A5.1,5.1,0,0,1,71,.6,7.79,7.79,0,0,1,74.1,0a6,6,0,0,1,3,.7,4.84,4.84,0,0,1,2.1,1.9,5.3,5.3,0,0,1,.7,2.8H76.2a2.35,2.35,0,0,0-.6-1.7A2.11,2.11,0,0,0,74,3.1a2.54,2.54,0,0,0-1.6.5,1.61,1.61,0,0,0-.6,1.3,1.56,1.56,0,0,0,.6,1.2,9.87,9.87,0,0,0,2.3,1.1,11.33,11.33,0,0,1,2.7,1.3A5.06,5.06,0,0,1,79.9,13a4.61,4.61,0,0,1-1.5,3.6,6,6,0,0,1-4.2,1.3,7.42,7.42,0,0,1-3.4-.8A5.23,5.23,0,0,1,68.5,15a6.21,6.21,0,0,1-.8-3.1h3.8a3.28,3.28,0,0,0,.6,2.1,2.54,2.54,0,0,0,2.1.7,2.46,2.46,0,0,0,1.5-.5C76.1,13.9,76.1,13.6,76.1,13.1Z"/></g></g></svg>